<svg width="146" height="146" viewBox="0 0 146 146" fill="none" xmlns="http://www.w3.org/2000/svg">
<circle cx="73" cy="73" r="73" fill="#6072EE"/>
<path d="M54.6896 118.702C54.6896 120.153 55.1058 121.569 55.9005 122.779L59.8284 128.7C61.0316 130.515 63.7632 131.991 65.9334 131.991H80.0661C82.229 131.991 84.9611 130.516 86.1643 128.7L90.0784 122.781C90.7517 121.758 91.304 119.93 91.304 118.702L91.3334 109.668H54.6667L54.6896 118.702ZM73 14C49.6296 14.0738 32.6667 33.122 32.6667 54.3551C32.6667 64.5833 36.4342 73.908 42.6492 81.0434C46.4373 85.3854 52.3521 94.4636 54.6163 102.12C54.6234 102.177 54.6378 102.239 54.6449 102.3H91.3574C91.3646 102.239 91.3789 102.181 91.3861 102.12C93.6491 94.4636 99.565 85.3854 103.353 81.0434C109.575 74.1063 113.333 64.7953 113.333 54.3551C113.333 32.1609 95.275 14.0009 73 14ZM95.0917 73.9449C91.5029 78.0588 87.0617 84.6156 83.8511 91.4352H62.1696C58.959 84.6156 54.5177 78.0588 50.9313 73.9472C46.2425 68.575 43.6667 61.4996 43.6667 54.3551C43.6667 40.1121 54.6896 25.1201 72.7938 25.0625C89.1792 25.0625 102.333 38.2914 102.333 54.3551C102.333 61.4996 99.7667 68.575 95.0917 73.9449ZM69.3334 32.4375C59.2271 32.4375 51 40.7113 51 50.875C51 52.9133 52.6399 54.5625 54.6667 54.5625C56.6934 54.5625 58.3334 52.9031 58.3334 50.875C58.3334 44.7745 63.2673 39.8125 69.3334 39.8125C71.3601 39.8125 73 38.1651 73 36.1273C73 34.0895 71.35 32.4375 69.3334 32.4375Z" fill="white"/>
</svg>
